<svg xmlns="http://www.w3.org/2000/svg" xmlns:svg="http://www.w3.org/2000/svg" xmlns:xlink="http://www.w3.org/1999/xlink" width="100%" height="100%" preserveAspectRatio="xMidYMid meet" viewBox="0 0 791 837" zoomAndPan="disable"><defs id="svgEditorDefs"><polygon id="svgEditorPolygonDefs" fill="maroon" stroke="#000" stroke-width="1.76"/><line id="svgEditorLineDefs" fill="none" stroke="#000" stroke-width="1" marker-end="url(#arrow20-16-right)" vector-effect="non-scaling-stroke"/><marker id="arrow15-12-left" markerHeight="12" markerUnits="strokeWidth" markerWidth="15" orient="auto" refX="3" refY="0" viewBox="0 -5 20 20"><path fill="#000" d="M 15 -5 L 0 0 L 15 5 z"/></marker><marker id="arrow15-12-right" markerHeight="12" markerUnits="strokeWidth" markerWidth="15" orient="auto" refX="-3" refY="0" viewBox="-15 -5 20 20"><path fill="#000" d="M -15 -5 L 0 0 L -15 5 z"/></marker><marker id="circle6" markerHeight="6" markerUnits="strokeWidth" markerWidth="6" orient="auto" refX="0" refY="0" viewBox="-5 -5 10 10"><circle cx="0" cy="0" r="5" fill="#000" stroke="none"/></marker><marker id="arrow8-6-left" markerHeight="6" markerUnits="strokeWidth" markerWidth="8" orient="auto" refX="3" refY="0" viewBox="0 -5 20 20"><path fill="#000" d="M 15 -5 L 0 0 L 15 5 z"/></marker><path id="svgEditorClosePathDefs" fill="khaki" stroke="#000" stroke-width="1" vector-effect="non-scaling-stroke"/><marker id="square4" markerHeight="4" markerUnits="strokeWidth" markerWidth="4" orient="auto" refX="0" refY="0" viewBox="-5 -5 10 10"><rect width="10" height="10" x="-5" y="-5" fill="#000"/></marker><marker id="arrow20-16-right" markerHeight="16" markerUnits="strokeWidth" markerWidth="20" orient="auto" refX="-3" refY="0" viewBox="-15 -5 20 20"><path fill="#000" d="M -15 -5 L 0 0 L -15 5 z"/></marker><marker id="arrow10-8-right" markerHeight="8" markerUnits="strokeWidth" markerWidth="10" orient="auto" refX="-3" refY="0" viewBox="-15 -5 20 20"><path fill="#000" d="M -15 -5 L 0 0 L -15 5 z"/></marker><marker id="arrow8-6-right" markerHeight="6" markerUnits="strokeWidth" markerWidth="8" orient="auto" refX="-3" refY="0" viewBox="-15 -5 20 20"><path fill="#000" d="M -15 -5 L 0 0 L -15 5 z"/></marker></defs><rect id="svgEditorBackground" width="791" height="837" x="0" y="0" fill="none" stroke="none"/><text id="e11_texte" x="187" y="193" fill="#000" font-family="Arial" font-size="20">Register</text><text id="e12_texte" x="190" y="273" fill="#000" font-family="Arial" font-size="20">Update</text><text id="e13_texte" x="196" y="343" fill="#000" font-family="Arial" font-size="20">Install</text><text id="e14_texte" x="190" y="407" fill="#000" font-family="Arial" font-size="20">Activate</text><line id="e15_line" x1="222" x2="223" y1="206" y2="253" fill="none" stroke="#000" stroke-width="1" marker-end="url(#arrow15-12-right)" vector-effect="non-scaling-stroke"/><line id="e16_line" x1="222" x2="222" y1="280" y2="323" fill="none" stroke="#000" stroke-width="1" marker-end="url(#arrow15-12-right)" vector-effect="non-scaling-stroke"/><line id="e17_line" x1="223" x2="223" y1="350" y2="387" fill="none" stroke="#000" stroke-width="1" marker-end="url(#arrow15-12-right)" vector-effect="non-scaling-stroke"/><polyline id="e19_polyline" fill="none" stroke="#000" stroke-width="1" marker-end="url(#arrow15-12-right)" points="152 112 201 148 205 166" vector-effect="non-scaling-stroke"/><line id="e20_line" x1="124" x2="182" y1="232" y2="256" fill="none" stroke="#000" stroke-width="1" marker-end="url(#arrow15-12-right)" vector-effect="non-scaling-stroke"/><line id="e21_line" x1="123" x2="184" y1="295" y2="273" fill="none" stroke="#000" stroke-width="1" marker-end="url(#arrow15-12-right)" vector-effect="non-scaling-stroke"/><text id="e22_texte" x="71" y="106" fill="#000" font-family="Arial" font-size="10.8" transform="matrix(1.03111 0 0 1.03111 1.36388 -2.39537)">navigator.serviceWorker.register()</text><text id="e23_texte" x="41" y="224" fill="#000" font-family="Arial" font-size="11.6">registration.update()</text><text id="e24_texte" x="66.131" y="306.674" fill="#000" font-family="Arial" font-size="11.6" transform="matrix(1.12189 0 0 1.12189 -13.3611 -34.4585)">Soft Update</text><text id="e25_texte" x="230" y="294" fill="#000" font-family="Arial" font-size="14.2">fetch</text><text id="e26_texte" x="231" y="313" fill="#000" font-family="Arial" font-size="15">script match</text><rect id="e27_rectangle" width="29" height="21" x="424" y="250" fill="maroon" stroke="#000" stroke-width="1.76"/><text id="e28_texte" x="402" y="242" fill="#000" font-family="Arial" font-size="15">registration</text><line id="e31_line" x1="454" x2="494" y1="261" y2="261" fill="none" stroke="#000" stroke-width="1" marker-end="url(#arrow8-6-left)" vector-effect="non-scaling-stroke"/><path id="e39_shape" fill="#fff" stroke="#000" stroke-width="1" d="M 78.7518 78.2226 c 0 26.51 -21.49 48 -48 48 s -48 -21.49 -48 -48 c 0 -26.51 21.49 -48 48 -48 s 48 21.49 48 48 Z" transform="matrix(0.270833 0 0 0.28125 498.671 239.5)" vector-effect="non-scaling-stroke"/><polyline id="e40_polyline" fill="none" stroke="#000" stroke-width="1" marker-end="url(#arrow15-12-right)" points="269 192 369 213 396 229" vector-effect="non-scaling-stroke"/><text id="e41_texte" x="343" y="204" fill="red" font-family="Arial" font-size="17.6" font-style="italic" font-weight="normal">Create</text><text id="e42_texte" x="186" y="485" fill="#000" font-family="Arial" font-size="20.2" font-style="normal" font-weight="normal">Unregister</text><text id="e44_texte" x="364" y="328" fill="red" font-family="Arial" font-size="18.9" font-style="italic" font-weight="normal">Delete</text><text id="e45_texte" x="487" y="243" fill="#000" font-family="Arial" font-size="15.7" font-style="italic" font-weight="normal">active</text><line id="e47_line" x1="520" x2="560" y1="262" y2="262" fill="none" stroke="#000" stroke-width="1" marker-end="url(#arrow8-6-left)" vector-effect="non-scaling-stroke"/><path id="e48_shape" fill="#fff" stroke="#000" stroke-width="1" d="M 322.444 81.7781 c 0 26.51 -21.49 48 -48 48 s -48 -21.49 -48 -48 c 0 -26.51 21.49 -48 48 -48 s 48 21.49 48 48 Z" transform="matrix(0.270833 0 0 0.28125 498.671 239.5)" vector-effect="non-scaling-stroke"/><text id="e49_texte" x="547" y="243" fill="#000" font-family="Arial" font-size="15.7" font-style="italic" font-weight="normal">waiting</text><line id="e50_line" x1="586" x2="626" y1="262" y2="262" fill="none" stroke="#000" stroke-width="1" marker-end="url(#arrow8-6-left)" vector-effect="non-scaling-stroke"/><path id="e51_shape" fill="#fff" stroke="#000" stroke-width="1" d="M 566.138 81.7779 c 0 26.51 -21.49 48 -48 48 s -48 -21.49 -48 -48 c 0 -26.51 21.49 -48 48 -48 s 48 21.49 48 48 Z" transform="matrix(0.270833 0 0 0.28125 498.671 239.5)" vector-effect="non-scaling-stroke"/><text id="e52_texte" x="606" y="243" fill="#000" font-family="Arial" font-size="15.7" font-style="italic" font-weight="normal">installing</text><text id="e53_texte" x="502" y="270" fill="#000" font-family="Arial" font-size="15.7" font-style="italic" font-weight="normal">^</text><text id="e54_texte" x="568" y="270" fill="#000" font-family="Arial" font-size="15.7" font-style="italic" font-weight="normal">^</text><text id="e55_texte" x="634" y="270" fill="#000" font-family="Arial" font-size="15.7" font-style="italic" font-weight="normal">^</text><polyline id="e56_polyline" fill="none" stroke="#000" stroke-dasharray="4 4" stroke-opacity=".5" stroke-width="1" marker-end="url(#arrow15-12-right)" points="261 271 324 304 357 373" vector-effect="non-scaling-stroke"/><polyline id="e58_polyline" fill="none" stroke="#000" stroke-dasharray="4 4" stroke-opacity=".5" stroke-width="1" marker-end="url(#arrow15-12-right)" points="257 335 304 360 335 378" vector-effect="non-scaling-stroke"/><text id="e60_texte" x="131.161" y="564.498" fill="#000" font-family="Arial" font-size="20.2" font-style="normal" font-weight="normal" transform="matrix(0.820582 0 0 0.820582 15.0979 92.0416)">Handle Service Worker Client Unload</text><text id="e63_texte" x="262.765" y="101.436" fill="red" font-family="Arial" font-size="18.9" font-style="italic" font-weight="normal" transform="matrix(0.692772 0 0 0.692772 117.257 221.05)">on error</text><text id="e64_texte" x="158.183" y="559.113" fill="#000" font-family="Arial" font-size="10.8" font-style="italic" transform="matrix(1.15126 0 0 1.15126 -7.49733 -66.3866)">when uninstalling flag is set</text><text id="e65_texte" x="43" y="513" fill="#000" font-family="Arial" font-size="11.6">registration.unregister()</text><line id="e66_line" x1="151" x2="184" y1="502" y2="483" fill="none" stroke="#000" stroke-width="1" marker-end="url(#arrow15-12-right)" vector-effect="non-scaling-stroke"/><path id="e75_curveS3" fill="none" stroke="#000" stroke-width="1" marker-end="url(#square4)" d="M 524 390 c 13.7188 4.07501 39.6434 17.2914 51 26 s 19.8467 22.2316 41 47 s 18.0037 17.1277 34 28" vector-effect="non-scaling-stroke"/><rect id="e76_rectangle" width="29" height="21" x="671.353" y="513.299" fill="teal" stroke="#000" stroke-width="1.76" rx="0" ry="0" transform="matrix(0.8134 0 0 0.8134 103.758 65.7763)"/><rect id="e78_rectangle" width="29" height="21" x="668.894" y="555.099" fill="teal" stroke="#000" stroke-width="1.76" rx="0" ry="0" transform="matrix(0.8134 0 0 0.8134 103.758 65.7763)"/><rect id="e80_rectangle" width="29" height="21" x="671.353" y="595.67" fill="teal" stroke="#000" stroke-width="1.76" rx="0" ry="0" transform="matrix(0.8134 0 0 0.8134 103.758 65.7763)"/><path id="e82_curveS3" fill="none" stroke="#000" stroke-width="1" marker-end="url(#square4)" d="M 522 390 c 24.0993 13.5222 56.6655 59.3714 66 82 s 14.1174 27.7443 17 31 s 32.7267 24.1212 42 23" vector-effect="non-scaling-stroke"/><path id="e84_curveS3" fill="none" stroke="#000" stroke-width="1" marker-end="url(#square4)" d="M 520 390 c 16.2161 17.1858 40.367 59.3215 47 82 s 2.34244 34.0876 24 56 s 36.8976 24.6495 59 30" vector-effect="non-scaling-stroke"/><text id="e85_texte" x="679" y="497" fill="#000" font-family="Arial" font-size="15">PushManager</text><text id="e86_texte" x="678" y="532" fill="#000" font-family="Arial" font-size="15">SyncManager</text><text id="e87_texte" x="679" y="564" fill="#000" font-family="Arial" font-size="15">GeofenceManager</text><rect id="e90_rectangle" width="29" height="21" x="488.172" y="382.983" fill="teal" stroke="#000" stroke-width="1.76" rx="0" ry="0" transform="matrix(0.8134 0 0 0.8134 103.758 65.7763)"/><path id="e96_curveS3" fill="none" stroke="#000" stroke-dasharray="4 4" stroke-width="1" marker-end="url(#square4)" d="M441,271c7.656524658203125,4.416168212890625,20.583831787109375,17.343475341796875,25,25s6.246734619140625,22.6697998046875,9,30s11.61212158203125,31.059967041015625,19,39s6.71575927734375,7.393951416015625,16,13" vector-effect="non-scaling-stroke"/><text id="e97_texte" x="556.601" y="391.24" fill="#000" font-family="Arial" font-size="15" transform="matrix(0.863202 0 0 0.863202 51.2186 49.9877)">ServiceWorkerRegistration</text><text id="e98_texte" x="319.816" y="364.448" fill="#000" font-family="Arial" font-size="20.2" font-style="normal" font-weight="normal" transform="matrix(0.856971 0 0 0.856971 50.3095 85.1023)">Clear Registration</text><polyline id="e100_polyline" fill="none" stroke="#000" stroke-width="1" marker-end="url(#arrow20-16-right)" points="409 383 429 306 436 276" vector-effect="non-scaling-stroke"/><text id="e101_texte" x="235.339" y="196.705" fill="red" font-family="Arial" font-size="18.9" font-style="italic" font-weight="normal" transform="matrix(0.692772 0 0 0.692772 117.257 221.05)">on error</text><line id="e102_line" x1="280" x2="366" y1="471" y2="401" fill="none" stroke="#000" stroke-width="1" marker-end="url(#arrow20-16-right)" vector-effect="non-scaling-stroke"/><polyline id="e103_polyline" fill="none" stroke="#000" stroke-width="1" marker-end="url(#arrow20-16-right)" points="286 535 369 451 390 403" vector-effect="non-scaling-stroke"/></svg>